<?xml version="1.0" standalone="no"?>
<!DOCTYPE svg PUBLIC "-//W3C//DTD SVG 1.1//EN" "http://www.w3.org/Graphics/SVG/1.1/DTD/svg11.dtd">
<svg xmlns="http://www.w3.org/2000/svg">
<metadata>Copyright (C) 2019 by original authors @ fontello.com</metadata>
<defs>
<font id="fontello" horiz-adv-x="1000" >
<font-face font-family="fontello" font-weight="400" font-stretch="normal" units-per-em="1000" ascent="850" descent="-150" />
<missing-glyph horiz-adv-x="1000" />
<glyph glyph-name="asterisk" unicode="&#xe800;" d="M956-59c4-12 4-20 0-31l-8-8-19-27c-8 0-16 4-23 8-51 34-85 65-116 104-35 46-78 85-124 124-8 7-15 15-23 23-19 19-35 35-54 46-8 4-12 8-20 12v-77-31-35c0-23 0-46 4-70 0 0 4-46 4-54 0-11-4-23-15-27-8-4-16-8-27-11h-4-8c-15 0-31 11-31 30-4 16-4 27-4 43 4 31 0 50-3 73-4 8-4 20-4 27v39c0 19 0 43-4 62 0 27-4 54-8 77v8c-100-70-185-159-274-240-16-15-27-31-43-46l-19-23-12-12c-15-15-27-23-42-23-12 0-27 4-39 15l-11 12 15 31c4 12 12 23 20 35 7 11 15 27 31 42l23 24c38 42 77 85 123 119 35 31 70 62 105 93 7 8 19 19 27 27h-93-77c-12 0-27 4-43 8-23 7-38 11-54 11-46 0-54 27-54 50l-4 20 19 4c12 4 20 4 27 4 66 7 116 7 163 7h46c15 0 35 0 50 4l-46 35-27 23c-46 39-93 77-139 120-27 23-54 54-77 85-4 4-4 8-8 8-19 23-23 46-12 69 8 11 20 35 39 35 12 0 23-8 35-16 11-8 19-15 27-23l231-220c24-23 51-46 74-70l-4 39c-4 27-4 54-8 85-4 42-4 96-11 147 0 11 0 27 4 42 7 39 34 58 69 58 8 0 12 0 19-4l16-4 27-343 15 11c23 19 50 39 70 62 88 93 162 170 235 236l20 19c3 4 11 11 27 11h3l12-3c19-12 23-24 27-35 0-23-8-43-23-58l-39-39c-42-38-85-85-135-146-4-8-12-12-15-16-20-15-31-27-43-38 0 0-35-39-42-47-8-7-16-15-24-23h244 23c27-4 35-19 39-27 3-19-4-39-20-46-11-4-19-8-27-8-19-4-38-4-58-4-30 0-54-4-81-8-7 0-11-4-19-4-15 0-23 4-35 4-19 0-38-4-58-4l-27-3c4-4 12-8 16-16 31-23 54-50 77-73l15-16c66-69 132-150 209-251l8-11z" horiz-adv-x="1000" />

<glyph glyph-name="menu" unicode="&#xe801;" d="M46 681c1 28 21 55 58 54 270-7 531-8 776-3 18 1 32-6 42-17 10-10 15-24 15-38 1-29-18-61-56-62-99-2-201-3-306-3-153 0-311 2-472 6h0c-38 2-57 33-57 63z m36-405c1 0 1 0 2 0l0 0c128 5 256 10 385 16 131 5 261 11 392 16 37 1 57 32 56 61 0 15-6 29-15 39-10 11-25 17-42 17-130-6-259-11-389-16-129-6-259-11-388-16-38-2-57-33-56-62 0-15 6-28 15-38 10-11 24-17 40-17z m837-174l0 0c-279 17-561 10-839-20-22-2-40-15-49-35-9-20-8-45 4-62 10-13 25-20 43-20 2 0 4 0 6 0 266 29 546 36 833 20 32-2 56 19 58 52 2 30-17 63-56 65z" horiz-adv-x="1000" />

<glyph glyph-name="telephone" unicode="&#xe802;" d="M868 803c-91 72-202-49-269-122-10-11-19-20-27-28-40-41-24-93-8-128 7-15 15-28 22-41 25-45 40-72 1-127-21-31-49-57-77-83-7-7-14-14-19-19-52-34-93-11-140 17-27 15-55 31-85 36-45 7-77-32-103-63-8-9-14-18-21-24-62-60-158-151-82-253 59-79 179-87 266-92l5-1c4 0 8 0 12 0 106 0 185 89 248 162 10 11 20 22 29 32l26 27c59 59 120 120 178 183 8 8 18 18 30 29 45 44 106 103 110 150 10 117 9 261-96 345z m-184-122c22 20 49 40 82 60 4 2 7 4 10 5-23-21-49-37-75-54-6-4-11-7-17-11z m61-32c35 22 71 44 98 76 58-69 72-238 41-279h0c-78-103-172-196-263-287l-48-48-21-24c-70-78-131-145-243-136-47 3-134 19-180 54 25 44 65 75 108 107 32 25 65 51 91 82l5-3c72-52 132-27 178 1 5 1 9 5 12 8 5 3 8 6 10 8 6 7 13 13 21 20 58 53 131 120 132 198 1 52-19 83-45 122-2 2-3 4-5 7 24 41 65 67 109 94z m-555-496c-29-23-59-47-84-75 1 3 2 5 3 7 17 37 50 67 81 96 9 8 18 16 26 24 23 22 39 26 57 21-25-27-54-51-83-73z" horiz-adv-x="1000" />

<glyph glyph-name="user" unicode="&#xe803;" d="M967 115c-3 18-8 40-18 60-8 18-21 34-39 51-54 53-129 82-200 77-62-5-119-35-156-81-1 2-2 3-3 4-51 56-127 84-212 81-99-4-197-51-251-120-40-52-89-133-47-240 5-13 16-22 30-23 46-7 93-10 140-10 60 0 119 4 177 8 75 5 153 10 228 7 10-1 21 3 28 10 7 8 11 18 11 29-1 7-2 13-3 19 18 0 35 1 52 1 78 0 158 1 237 7 19 2 34 19 34 38-1 27-3 55-8 82z m-584-119c-96-6-188-12-279-2-13 49 0 93 43 148 40 51 118 87 195 91 63 2 118-18 154-57 48-52 72-102 81-172-66 1-130-4-194-8z m320 66c-21 0-42 0-63-1-8 36-21 68-40 99 23 38 67 65 115 69 50 3 104-17 143-56 12-11 20-21 25-31 6-12 9-27 11-40 2-12 4-23 5-35-65-4-131-5-196-5z m-163 546c-20 84-78 149-152 170-70 20-142 0-199-56-53-52-78-122-67-187 13-80 83-149 171-166 16-4 32-5 48-5 40 0 78 10 111 29 51 30 86 81 93 136 3 24 1 50-5 79z m-69-69c-4-33-26-64-56-82-30-18-69-23-107-16-58 12-105 57-113 106-7 41 11 87 46 122 38 37 83 50 126 38 48-14 87-58 100-116 5-20 6-37 4-52z m417-13c-10 50-50 97-104 120-48 21-98 19-136-6-44-29-74-77-80-128-6-47 8-92 41-126 29-32 71-49 113-49 16 0 31 2 46 7 71 23 135 97 120 182z m-143-112c-28-9-62 0-82 22-22 24-24 50-22 67 4 30 22 58 48 75 24 15 54 5 65 0 31-13 56-40 61-66 8-42-30-85-70-98z" horiz-adv-x="1000" />

<glyph glyph-name="basket" unicode="&#xe804;" d="M766 9c2-22 0-55-14-73-12-16-35-26-62-27-6-2-12-3-19-3-18 0-43 8-64 45-11 22-16 77 1 100 12 18 35 28 62 28 3 0 7 0 11-1 1 0 3 0 5 0 22 0 39-5 49-16 3-2 5-4 7-7 0-1 1-2 1-3 14-12 22-27 23-43z m-321 45c-13 8-37 19-49 19-1 0-2 0-3 0-3 0-7 0-10 0-43 0-68-12-74-37-8-34 11-79 34-100 14-13 32-19 51-19 34 0 65 21 77 53 9 23 7 57-13 76-3 2-7 5-13 8z m503 549c-16-32-28-57-37-82-16-42-33-79-51-111-16-27-38-60-68-74-13-5-28-8-48-8-11 0-23 1-35 2-14 1-27 2-39 1-16 0-31-1-47-3-26-1-54-3-80-3-23-1-46-1-71-4-3-1-7-1-10-2-11-2-22-4-34-4-11 0-20 2-28 6-1-3-2-6-4-10-1-4-2-8-4-12-3-5-7-12-12-20-13-22-41-69-34-83 3-5 5-6 11-6 2 0 4 0 6 0l5 1c17 0 34 0 50 1 18 0 35 0 53 1 70 3 143 6 217 5h0c6 0 13 1 20 2 14 2 29 3 39 0 14-4 23-14 26-28 3-13-2-27-12-36-9-8-21-10-31-13l-2 0c-7-2-14-4-21-5-13-4-27-7-41-10-12-1-25-2-41-2-8 0-15 0-23 0-13 0-26 1-39 0-15 0-30-1-45-1-46 0-93 3-140 9-26 3-52 9-75 14-25 7-41 24-44 51-8 60 46 156 87 188-5 3-9 7-11 10-4 3-9 8-11 9-1 0-2 1-2 2-7 8-15 17-23 25-20 20-47 59-55 77-2 2-4 6-5 7-1 0-1 1-2 1-2 5-5 10-9 14-2 2-4 5-5 7-2 3-5 7-6 8l-17 17-6 7c-13 17-26 34-32 56-2 6-1 13-1 19 1 5 1 11 0 14-1 3-4 7-6 10-3 3-6 6-7 9-4 7-7 15-10 22-5 12-9 23-18 31-6 5-13 7-26 7-4 0-8 0-12 0-6 0-12-1-17 0l-3 0c-13 0-24 1-31 9-5 6-7 13-6 25 3 29 23 33 42 37 15 2 29 4 42 4 38 0 64-13 77-36 3-6 6-14 9-22 5-16 11-32 22-36 8-3 19-5 34-5 15 0 30 2 45 3 14 1 26 2 36 2 22 0 42 3 64 7 16 2 32 4 49 6 24 1 48 0 72-2 25-1 52-2 74-1 22 2 44 5 65 8 31 4 63 8 96 9 20 0 39 4 58 7 22 3 44 7 67 7 28 0 65 0 84-19 33-31 0-95-13-119z m-102 59c-9 2-19 3-31 3-14 0-28-2-42-3-8-1-15-1-22-2-12-1-24-1-36-2-24-2-48-3-72-5-13-2-33-1-51 0-14 2-27 3-39 2l-22-1c-9-2-18-2-28-3-11-1-24-1-38-1l-15 0h-1c-18 0-35 1-49 3-12 1-25 0-38 0-22 0-43-3-64-6-18-2-36-4-54-5 3-6 7-14 10-19 6-11 12-22 18-33 6-10 12-21 18-31 8-11 14-24 21-36 11-22 22-43 38-58 6-6 13-12 19-19 16-16 33-34 50-42 14-6 31-8 53-8 19 0 38 2 57 3 18 2 35 4 51 4 12 0 24 0 36-1 13 0 25-1 38-1 19 0 34 1 47 3 50 8 84 30 102 66 5 8 8 17 12 26 5 12 10 25 18 37 11 19 23 40 32 63 5 12 7 20 8 21 2 14 2 37-26 45z" horiz-adv-x="1000" />

<glyph glyph-name="cross" unicode="&#xe805;" d="M897-115c-6 0-12 1-18 2-98 25-183 145-251 241-20 29-40 56-58 79 0 0-43 53-56 69l-7 9-30-32c-105-115-214-233-333-336-13-11-27-17-42-17h0c-29 0-57 20-67 46-5 13-9 38 17 61 124 106 237 228 345 345l29 31-6 6c-75 87-191 211-323 284-37 21-33 53-30 67 7 26 31 53 63 53 11 0 21-3 32-9 137-76 256-201 343-301l7-8 8 8c98 103 218 221 357 320 11 8 22 12 33 12 24 0 47-19 55-47 10-30 1-59-25-77-134-95-247-208-340-306l-6-6 18-22c29-35 57-70 85-105 28-36 57-72 87-108 6-8 14-18 23-29 30-42 69-94 107-104 38-10 48-41 44-66-3-30-26-60-61-60z" horiz-adv-x="1000" />

<glyph glyph-name="arrow-right" unicode="&#xe806;" d="M549-88c-24 0-48 13-57 32-7 14-5 28 6 43 13 18 69 61 122 103 79 61 169 131 204 180l34 47-58-6c-89-11-256-17-437-17-116 0-220 3-284 7-39 3-55 34-54 62 0 8 4 48 46 48l4 0c65-5 173-8 295-8 171 0 332 6 420 14l67 7-55 40c-31 23-72 43-108 62-21 11-42 21-54 29-34 21-68 43-102 65-34 22-68 43-102 64-31 20-26 49-23 61 6 21 25 43 49 43 9 0 18-3 27-9 44-28 89-56 134-84 76-48 154-97 227-147 55-39 102-76 119-135 38-126-105-242-231-344-58-47-112-91-143-132-14-21-33-25-46-25l0 0z" horiz-adv-x="1000" />

<glyph glyph-name="arrow-left" unicode="&#xe807;" d="M394-40c-12 0-23 5-33 14-23 20-55 46-88 74-57 47-121 100-160 136l-7 6c-41 35-76 65-81 115-6 84 174 261 271 356 26 25 48 47 63 62 10 11 21 17 33 17 18 0 37-14 46-34 5-11 10-33-10-54-16-18-59-64-102-111-45-48-90-97-107-115l-32-35 47-5c112-10 361-19 553-19 69 0 103 1 142 3l4 0c39 0 42-37 42-44 1-26-14-55-49-57-41-3-81-4-154-4 0 0 0 0 0 0-194 0-451 10-572 23l-73 8 55-49c17-15 38-30 56-43 11-8 21-15 28-20 17-16 51-44 84-71 32-27 66-55 83-70 16-14 21-29 15-45-7-21-31-38-54-38z" horiz-adv-x="1000" />

<glyph glyph-name="search" unicode="&#xe808;" d="M743 264c24 47 45 95 41 141 1 38 0 66-9 93-5 46-28 84-56 118-38 46-88 76-144 96-36 13-74 19-112 27-34 6-68 4-101-4-18-4-36-10-53-16-45-17-82-45-116-78-24-24-38-53-51-83-19-45-27-92-26-142 1-93 37-170 94-241 33-32 66-63 110-80 9-4 18-8 27-12 29-13 59-18 91-20 29-2 57 5 85 8 14 2 27 6 40 13 38 19 76 39 106 71 0 0 58 74 74 109m-44-186c-25-16-50-31-74-47-28-19-58-31-92-36-30-5-60-9-91-9-48-1-94 11-139 29-55 23-96 62-141 98-2 2-4 5-6 7-53 64-93 134-110 216-19 88-12 175 25 257 12 26 28 50 42 75 3 4 5 9 9 12 28 26 55 53 86 76 52 37 110 56 172 67 6 2 13 2 19 2 48 0 96-3 142-17 17-5 34-9 51-15 49-16 92-44 130-78 40-35 73-77 97-124 4-7 7-14 10-22 21-65 30-131 19-198-10-59-28-115-59-167-5-8-12-15-17-22-2-3 0-7 0-10 0-1 1-3 2-4 38-44 77-85 121-123 21-18 37-39 53-61 15-19 19-41 15-63-2-19-14-33-31-40-22-8-43-8-65 3-19 10-34 24-48 40-25 28-48 59-69 91-12 17-24 34-37 51-3 4-9 8-14 12" horiz-adv-x="1000" />

<glyph glyph-name="envelope" unicode="&#xe809;" d="M951 585c-3 0-6 1-9 1-7 6-15 8-25 5-124 23-249 47-374 63-134 17-271 8-402 45-15 4-25-3-29-13-3-3-4-7-5-12-28-170-53-340-79-510-7-16-2-38 21-40 270-29 535-88 804-123 31-4 42 33 26 50-1 74 32 151 48 223 19 88 32 176 45 265 0 1 0 2 0 3 7 16 2 39-21 43z m-529-365c2-5 5-8 8-10 11-16 33-24 47-4 14 23 49 37 70 53 15 11 31 21 46 32 31-29 64-56 91-90 34-42 65-86 96-130-205 30-409 71-614 98 71 41 139 88 209 132 16-27 32-54 47-81z m403-112c-27 39-56 77-84 115-29 40-65 69-100 102 11 8 22 16 33 24 78 54 157 108 234 165-12-84-26-167-44-250-11-52-29-103-39-156z m24 436c-74-54-150-106-225-158-15-11-29-21-44-32-3-1-6-3-8-5-23-16-45-31-67-48-14-10-30-19-45-30-13 24-27 47-40 70 0 11-7 21-17 27-54 88-113 173-179 253 102-15 207-14 310-26 106-12 210-31 315-51z m-692 66c69-82 131-168 187-259-83-52-163-110-251-154 20 137 42 275 64 413z" horiz-adv-x="1000" />

<glyph glyph-name="contact" unicode="&#xe80a;" d="M886 130l-7 6c-7 11-19 16-29 21l-19 5-2 2-4 1c-13 7-26 12-39 17-14 5-26 10-38 16l0 0c-3 2-6 4-10 6-14 8-31 18-50 15-4-1-7-2-10-3-3 0-5 1-8 0-8 0-15-4-19-7-8-3-21-11-21-11-13-5-28-11-40-17-7 0-12 0-19 1-2 0-7 1-12 2-18 5-44 11-64 7-10 4-21 8-32 13-7 4-16 10-23 16l-2 1-1 1c-2 0-5 2-4 1-28 32-48 67-67 119-7 20-21 53-28 70 20 11 41 24 41 24 31 13 77 40 102 72 7 11 11 25 9 38-1 9-7 19-8 20-4 8-8 18-12 28-1 5-2 11-4 17-2 7-3 15-4 24 2 16 2 33-5 46-1 3-4 7-7 10-2 5-3 11-3 11l0 1c-1 4-3 7-4 9-1 3-2 5-4 10l-2 4c-4 9-15 18-17 20l-1 0c-3 2-5 3-7 5-5 3-10 6-16 8-7 1-12 3-15 3l-5 3c-15 7-33 12-49 17-8 2-16 5-23 7-5 2-10 4-15 6-3 1-8 3-14 5l-4 1c-3 1-5 2-7 3-2 1-6 2-9 3l-8 2c-1 0-2 1-3 1-30 15-72 24-91 1-10-11-13-27-17-43-2-7-3-13-5-19-3-5-6-16-7-20-9-11-14-29-16-41-3-19-2-34-1-50 0-8 1-17 1-28 1-18 1-34 0-50 0-14 0-27 1-44l1-15c3-57 6-110 23-164 8-24 18-47 28-69 4-8 8-16 11-24l5-12c12-28 20-49 37-79 21-36 57-70 89-98 8-5 15-9 23-13 7-4 14-8 21-13 7-5 13-11 19-17 7-7 13-14 21-19 24-18 56-31 83-41l5-2c11-5 20-8 27-11l10-4c6-5 14-8 23-8 8-3 18-6 37-11 10-2 36-6 36-6l11-3c3-1 8-4 17-6 15-6 26-8 43-12 4-1 7-1 10-1 1 1 1 1 1 1l10-3c20-4 40-9 60-9 20-5 41 0 54 10 8 5 13 14 17 23 2 3 3 7 5 10l5 8c15 22 24 37 33 65 5 12 11 27 14 40 5 18 6 38 6 57 0 7 0 13 0 20l-1 5c-1 5-2 11-7 15" horiz-adv-x="1000" />

<glyph glyph-name="right" unicode="&#xe80b;" d="M759 324c-148-134-287-277-418-429-52-60-140 28-88 88 117 136 240 263 371 385-127 117-254 235-381 352-59 55 29 142 88 88 142-132 285-264 428-396 23-22 24-66 0-88z" horiz-adv-x="1000" />

<glyph glyph-name="left" unicode="&#xe80c;" d="M774 717c-133-123-271-240-413-352 110-126 221-253 331-379 54-62-36-152-90-90-126 144-252 288-378 433-29 33-20 73 13 100 155 119 303 246 447 379 60 55 150-35 90-91z" horiz-adv-x="1000" />

<glyph glyph-name="pin" unicode="&#xe80d;" d="M595 621c-75 43-170 28-236-23-11-9-13-21-9-30-22-73 13-144 76-188 76-54 164-27 216 44 50 70 25 155-47 197z m-4-154c-58-107-221-11-177 89 70 43 234 17 177-89z m-42 357c-111 10-228-35-303-116-81-88-86-207-63-317 25-121 83-228 158-324 39-51 75-172 144-187 9-6 20-7 32-1 69 35 121 131 162 194 66 98 132 223 147 341 22 184-80 391-277 410z m205-435c-26-104-79-204-138-292-31-46-69-117-117-152-18 11-36 49-44 64-17 28-32 57-51 84-61 83-114 163-144 263-30 105-41 214 32 305 64 79 183 108 280 94 155-22 215-236 182-366z" horiz-adv-x="1000" />

<glyph glyph-name="email" unicode="&#xe80e;" d="M513-125c-131 0-264 57-357 152-81 83-123 187-121 295 7 273 219 503 463 503 46 0 91-8 136-23 173-59 294-177 324-317 22-104-4-275-128-314-13-4-27-6-40-6l0 0c-60 0-114 47-159 139l-16 34-13-35c-18-50-45-82-82-100-27-14-54-20-81-20-70 0-134 47-170 125-23 51-23 98 0 142 54 107 227 167 321 185 3 1 6 1 9 1 20 0 30-12 35-20 8-13 10-30 4-42l-2-5 1-5c0-3 64-319 150-319 4 0 7 0 11 2 36 11 63 37 76 74 26 69 4 171-30 226-65 103-162 168-281 189-20 4-40 6-60 6-101 0-202-48-277-130-80-89-120-205-108-318 19-187 194-339 391-339 65 0 127 18 181 52 6 4 13 6 20 6 18 0 33-16 37-32 3-9 6-31-17-45-64-40-139-61-217-61z m17 663c-114-32-178-78-192-135-7-31 3-67 27-97 22-28 52-45 80-45 28 0 52 17 68 47 31 61 35 133 37 214l0 21-20-5z" horiz-adv-x="1000" />

<glyph glyph-name="tick" unicode="&#xe80f;" d="M947 593c-207-145-388-322-539-526l-4-6 0-6c0-17-8-34-21-48-12-12-28-19-42-19 0 0 0 0 0 0-10 0-20 3-29 9l-3 3-3 1c-27 7-47 28-49 50l0 6-4 5c-80 90-150 172-213 250-24 29-14 59-8 70 11 24 34 40 55 40 14 0 26-7 37-20 55-68 114-138 187-221l16-17 14 18c156 199 340 374 547 519 10 7 21 11 31 11 23 0 44-19 53-45 3-11 12-49-25-74z" horiz-adv-x="1000" />

<glyph glyph-name="heart" unicode="&#xe810;" d="M926 709c-82 187-324 123-424-14-18 31-39 60-67 84-46 38-108 45-165 40-131-11-223-107-226-238-3-143 114-276 197-380 47-59 91-116 129-181 28-48 60-98 110-125 1-1 2-1 3-1 11-20 43-29 59-4 21 34 36 71 56 105 25 41 63 77 95 113 61 69 105 152 171 217 97 94 116 260 62 384z m-72-297c-15-24-40-43-60-63-23-23-40-48-57-75-42-65-93-121-143-179-38-43-61-90-89-137-67 42-97 138-145 199-73 94-151 183-209 288-63 111-55 256 82 300 48 15 106 15 151-10 43-24 66-81 90-123 15-26 51-17 60 8 30 77 107 129 188 138 105 11 151-64 161-158 6-63 6-133-29-188z" horiz-adv-x="1000" />

<glyph glyph-name="download" unicode="&#xe811;" d="M867 432c-5 10-15 17-27 19l-1 1c-44 4-91 7-145 9-1 54-1 108-1 161-1 57-1 114-2 171 0 17-13 30-30 30-60-1-121-2-180-2-9 0-21 0-35 1-46 3-103 7-133-12-8-6-15-17-13-26 5-70 9-142 12-211 2-43 4-85 7-127-49-10-100-14-153-11-13 0-26-8-32-20-6-12-6-25 2-35 36-50 71-102 105-151 79-118 162-239 262-345 7-6 16-9 24-9 10 0 19 3 26 9 51 46 88 113 124 177 10 19 20 37 31 54 48 83 99 174 159 286 5 10 5 22 0 31z m-487-22c2 8 0 17-4 24-5 77-9 156-13 234l-1 15c0 14 0 52-7 78 9 0 19-1 23-1l10 0c80 3 159 3 241 3-3-89-3-178-3-264l0-69c0-19 15-34 33-34h0l37-1c28-2 58-3 87-6-41-76-85-151-127-223l0 0c-10-17-19-34-29-52-30-54-60-109-98-153-88 99-163 210-235 317-19 28-37 56-56 84 40 2 85 7 124 27 10 4 16 12 18 21z" horiz-adv-x="1000" />

<glyph glyph-name="instagram" unicode="&#xe812;" d="M962 591c-9 107-64 168-180 195-110 26-235 39-383 39-43 0-88-1-138-3-20-1-29-13-34-22l-3-8-8-1c-205-32-191-369-184-550 1-13 1-25 2-37 4-112 26-233 160-286 92-36 210-43 293-43h0c61 0 125 4 183 12 136 17 233 91 266 203 35 121 44 285 26 501z m-75-201c-2-22-3-44-4-63-1-11-1-23-2-35-4-113-8-241-128-300-46-23-101-33-173-33-34 0-68 2-101 4-18 1-36 2-54 3-9 1-17 1-26 1-109 4-244 8-278 141-18 70-16 150-13 228 1 29 2 57 2 83-1 99 5 208 60 263 22 22 50 34 82 34 9 0 19-1 29-3 2-1 5-1 8-1 22 0 33 17 37 24l4 9 10 0c12 0 25 0 37 0 74 0 141-3 208-10 10-1 22-2 36-3 89-6 225-16 257-104 23-65 16-157 9-238z m-363 157l-6 1-4 6c-4 7-14 17-31 18-4 0-7 0-11 0-123 0-191-118-202-227-6-59 10-113 46-156 39-48 100-77 170-83 4 0 9 0 13 0 106 0 218 109 221 216 5 131-98 202-196 225z m117-227c-8-77-87-131-153-131-9 0-17 1-26 3-78 17-119 68-114 144 5 61 34 137 102 153l9 2 6-6c7-6 15-10 25-11 80-9 160-66 151-154z m84 291c-32 0-40-27-40-43 0-11 3-22 10-30 7-8 17-12 30-12 32 0 41 26 41 42 0 11-4 22-11 30-7 8-17 13-30 13z" horiz-adv-x="1000" />

<glyph glyph-name="vimeo" unicode="&#xe813;" d="M974 598c-5 43-25 79-59 106-28 23-61 34-100 34-116 0-254-104-277-211-3-11-1-21 5-29 7-8 17-12 28-12 5 0 11 1 17 4 18 8 33 12 45 12 17 0 26-8 30-15 17-30-17-93-21-100-17-29-34-51-52-69-16-15-30-22-43-22 0 0 0 0 0 0-35 0-45 48-54 87-1 5-2 10-3 15-6 26-11 53-15 79-12 66-25 134-56 193-18 34-44 50-79 50-79 0-184-82-254-136-17-14-32-25-44-33l-1-1-1-1c-11-6-14-16-15-23-1-12 4-25 13-33 4-3 10-8 18-8 4 0 8 1 12 4l2 0 1 1c11 2 23 3 36 3 42 0 97-12 119-47 20-34 25-85 29-130 1-19 3-36 5-50 3-18 6-39 8-61 9-79 19-169 76-210 31-22 65-33 100-33 0 0 0 0 0 0 137 0 283 157 359 251 44 54 186 243 171 385z m-131-215c-42-73-191-314-370-345-8-1-15-2-22-2-98 0-111 118-121 205-2 16-4 32-6 46-3 16-5 34-7 52-7 52-14 106-37 149-20 36-58 54-87 63l-26 8 22 15c35 24 65 42 93 56 21 11 36 16 49 16 34 0 43-32 52-69 2-6 4-12 5-18 9-31 15-62 21-92 1-9 3-19 5-28 2-9 4-20 6-31 13-77 33-193 110-193h0c6 0 13 1 19 2 93 19 186 155 189 243 2 82-62 99-90 102l-24 3 16 18c36 43 92 72 153 81 8 1 16 2 24 2 34 0 58-12 72-36 39-67-22-204-46-247z" horiz-adv-x="1000" />

<glyph glyph-name="facebook" unicode="&#xe814;" d="M729 819c-18 4-36 6-54 6-113 0-201-82-218-204-7-51-11-105-14-167l0-14-14 0c-55-2-103-3-147-6-27-1-38-23-38-42 1-16 10-35 34-35l2 0c45 3 92 5 146 6l15 0v-15c0-72 3-145 5-216 2-73 4-148 4-220 0-11 3-20 9-26 7-7 18-11 29-11 14 0 39 8 39 37l1 452 23 0c37 0 73 0 111-1 26 0 35 20 35 37 0 15-7 40-37 40-36 1-72 1-108 1l-26 0 0 15c-2 98 3 205 56 260 22 23 51 34 86 34 12 0 25-1 39-4 3-1 6-1 9-1 23 0 38 20 40 38 0 9 0 31-27 36z" horiz-adv-x="1000" />

<glyph glyph-name="hamburger" unicode="&#xe815;" d="M973 600c-5 12-17 20-29 20-2 0-4 0-6-1l-89-16 3 16c4 21 8 39 13 56 2 7 0 16-5 23-6 8-15 13-23 13-5 0-9-1-13-4-6-4-12-9-19-15-22-17-46-37-69-42-8-2-14-3-20-3-13 0-21 4-29 7-6 3-12 5-21 7-11 2-23 4-35 4-27 0-52-6-75-18-67-34-91-96-99-143l-2-14-13 6c-45 21-75 51-89 88-5 12-19 22-31 22-6 0-12-2-16-8-102-129-117-274-38-369l15-18-24 0c-73 0-141 4-208 12-1 0-2 1-3 1-12 0-18-9-20-15-5-12-3-26 4-34 111-118 255-186 395-186 0 0 0 0 0 0 70 0 137 17 199 51 86 46 151 126 187 229 11 32 12 62 13 94 0 21 1 43 5 66 6 37 53 75 94 108 16 13 31 25 41 35 12 11 9 23 7 28z m-154-78c-31-29-46-55-47-80-1-15-1-31-1-46 1-37 1-73-13-113-21-60-52-109-92-147-65-59-145-91-233-91-89 0-185 33-270 92l-32 22 39-2c34-2 68-3 101-3 33 0 67 1 99 3 16 1 26 14 29 26 1 7 1 19-13 27-61 30-122 74-114 169 4 47 18 90 42 132l8 14 10-13c33-41 82-72 142-88 3-1 6-1 8-1 6 0 10 1 16 5 5 3 12 10 12 23-1 37 3 90 42 125 21 19 41 28 64 28 16 0 32-5 48-9 11-3 21-6 32-8 6-1 11-2 17-2 19 0 39 6 62 19l19 11-5-38c-1-10 1-19 6-26 4-5 10-9 18-10l22-3-16-16z" horiz-adv-x="1000" />

<glyph glyph-name="play" unicode="&#xe816;" d="M895 434c-237 128-474 257-710 386-18 10-36 5-48-7-21 1-42-12-42-40-4-285-7-571-10-856 0-26 27-49 52-40 293 101 531 296 766 492 20 17 13 53-8 65z m-94-43c-195-162-396-321-633-415 3 252 6 503 9 754 208-113 416-226 624-339z" horiz-adv-x="1000" />
</font>
</defs>
</svg>
