<?xml version="1.0" encoding="utf-8"?>
<!-- Generator: Adobe Illustrator 18.1.1, SVG Export Plug-In . SVG Version: 6.00 Build 0)  -->
<svg version="1.1" id="Layer_1" xmlns="http://www.w3.org/2000/svg" xmlns:xlink="http://www.w3.org/1999/xlink" x="0px" y="0px"
	 viewBox="225.9 81 443.4 809.8" enable-background="new 225.9 81 443.4 809.8" xml:space="preserve">
<g>
	<path fill="#333333" stroke="#333333" stroke-width="18" stroke-miterlimit="10" d="M251.2,502.2c4,0,8.2-1.6,11.3-4.7L655.2,118
		c6.5-6.2,6.6-16.6,0.5-23c-6.2-6.5-16.6-6.6-23-0.5L240,474c-6.5,6.2-6.6,16.6-0.5,23C242.7,500.7,246.8,502.2,251.2,502.2z"/>
	<path fill="#333333" stroke="#333333" stroke-width="18" stroke-miterlimit="10" d="M644,881.8c4.3,0,8.5-1.7,11.8-4.9
		c6.2-6.5,6.1-16.8-0.5-23L262.5,474.2c-6.5-6.2-16.8-6.1-23,0.5c-6.2,6.5-6.1,16.8,0.5,23l392.8,379.6
		C635.8,880.2,640,881.8,644,881.8z"/>
</g>
</svg>
