<?xml version="1.0" encoding="UTF-8"?>
<svg enable-background="new 0 268.5 612 255" version="1.1" viewBox="0 268.5 612 255" xml:space="preserve" xmlns="http://www.w3.org/2000/svg">
<title>Asset 3</title>
	<path d="m172.5 442.2c-3.9 0-6.8 3.2-7.2 7.6h14.3c-0.3-4-2.7-7.6-7.1-7.6z" fill="#fff"/>
	<path d="m464.4 363.9c-7.7 0-12.8 5.5-14.3 14.1h28.2c-1.1-8.5-6-14.1-13.9-14.1z" fill="#fff"/>
	<path d="m398.9 442.2c-3.9 0-6.8 3.2-7.2 7.6h14.3c-0.3-4-2.6-7.6-7.1-7.6z" fill="#fff"/>
	<polygon points="604.2 497.8 604.3 497.8 604.3 472 604.2 472"/>
	<path d="m87.7 347.1h-14.7v51.9h14.7c15.5 0 26-10.5 26-25.7v-0.3c-0.1-15.3-10.5-25.9-26-25.9z" fill="#fff"/>
	<path d="m133.2 442.4c-4.3 0-7.9 3.2-7.9 8.6-0.3 4.4 3 8.3 7.4 8.6h0.4c4.8-0.3 8.4-4.5 8.1-9.2-0.3-4.3-3.7-7.7-8-8z" fill="#fff"/>
	<path d="m294.7 442.4c-4.5 0.1-8.1 3.8-8.1 8.3v0.4c-0.2 4.6 3.4 8.5 8.1 8.7h0.2c4.5 0 8.2-3.7 8.2-8.2v-0.4c0.2-4.6-3.4-8.5-8.1-8.7-0.1-0.1-0.2-0.1-0.3-0.1z" fill="#fff"/>
	<path d="m473.6 442.2c-3.9 0-6.8 3.2-7.2 7.6h14.3c-0.3-4-2.6-7.6-7.1-7.6z" fill="#fff"/>
	<path d="m328.5 401.5c10.7 0 17.1-8.2 17.1-18v-0.2c0-9.7-7-18.1-17.4-18.1-10.7 0-17.1 8.3-17.1 18v0.2c0 9.5 7.1 18.1 17.4 18.1z" fill="#fff"/>
	<path d="m9.1 295.5v201.1l290.8-6 303.1 6v-201.1l-303.1 6-290.8-6zm185.1 94.6c-9.2-2.7-19.7-7-19.7-19.8v-0.2c0-13.5 10.9-21 24.1-21 8.8 0.1 17.3 2.8 24.6 7.6l-7.2 12.9c-6.5-3.8-13.1-6.2-17.8-6.2-4.8 0-6.9 2-6.9 4.6v0.3c0 3.7 6.3 5.4 13.4 7.9 9.2 3.1 19.9 7.5 19.9 19.6v0.2c0 14.7-11 21.3-25.2 21.3-10.3-0.1-20.3-3.7-28.3-10.1l8.1-12.3c7.1 5.2 14.6 7.9 20.8 7.9 5.4 0 7.9-2 7.9-4.9v-0.2c-0.1-4-6.5-5.4-13.7-7.6zm-49.9-63.9h19.7v16.6h-19.7v-16.6zm-76.5 136.5c-8.6 0-15.6-7.1-15.5-15.7 0-8.6 7.1-15.6 15.7-15.5 4.4-0.1 8.7 1.6 11.8 4.8l-2.3 2.5c-2.5-2.6-5.9-4-9.5-4-6.9 0.4-12.1 6.3-11.7 13.2 0.4 6.3 5.4 11.4 11.7 11.7 3.7 0 7.3-1.6 9.7-4.4l2.3 2.2c-3.2 3.4-7.6 5.3-12.2 5.2zm34.2-0.5h-3.3v-13c0-4.1-2.2-6.7-6.2-6.7-3.6-0.1-6.6 2.8-6.7 6.4v0.6 12.8h-3.3v-31.5h3.3v13.1c1.5-2.8 4.5-4.5 7.6-4.4 5.4 0 8.5 3.6 8.5 8.9l0.1 13.8zm7.9 0h-3.3v-22.3h3.3v22.3zm0.3-27.2h-3.8v-3.7h3.8v3.7zm8.1 27.2h-3.3v-31.5h3.3v31.5zm-30.6-46.1h-33.7v-86.2h33.6c27.1 0 45.8 18.6 45.8 42.8v0.3c0.1 24.2-18.6 43.1-45.7 43.1zm56.7 46.1h-3.4v-4.5c-1.8 3-5 4.9-8.5 5-6.4-0.5-11.2-6.2-10.7-12.6 0.5-5.7 5-10.2 10.7-10.7 3.5 0 6.7 1.8 8.5 4.7v-13.4h3.3l0.1 31.5zm0.4-112.1h18.7v66h-18.7v-66zm16.8 93h-0.2c-4.9 0-8.8 3.5-8.8 10.2v8.9h-3.3v-22.3h3.3v5.9c1.4-3.8 5-6.3 9.1-6.2v3.5zm21.3 9.2h-17.7c0.1 4.3 3.6 7.7 7.9 7.6 2.7 0 5.3-1.1 7-3.1l2 1.9c-2.3 2.7-5.6 4.3-9.2 4.2-6.1 0-11.1-4.9-11.1-11v-0.6c0-6.5 4.5-11.6 10.7-11.6 6.6 0 10.4 5.3 10.4 11.8v0.8zm22.9 9.9h-3.3v-13c0-4.1-2.2-6.7-6.2-6.7-3.6-0.1-6.6 2.8-6.7 6.4v0.6 12.8h-3.3v-22.3h3.3v3.9c1.5-2.8 4.5-4.4 7.6-4.4 5.4 0 8.5 3.6 8.5 8.9v13.8zm8.1-26.2c0.3 2.9-1.9 5.5-4.8 5.8l-0.5-1.5c2.2-0.8 3.1-1.9 2.9-3.7h-1.6v-4.6h4v4zm17.4 20.1c0 4.2-3.5 6.7-7.9 6.7-3.4-0.1-6.6-1.2-9.2-3.3l1.7-2.4c2.2 1.7 4.9 2.7 7.7 2.7 2.7 0 4.6-1.4 4.6-3.5 0-2.2-2.6-3.1-5.6-3.9-3.5-1-7.4-2.2-7.4-6.3 0-3.8 3.2-6.4 7.6-6.4 2.9 0.1 5.7 0.9 8.1 2.5l-1.5 2.5c-1.9-1.3-4.2-2.1-6.6-2.2-2.6 0-4.3 1.4-4.3 3.2 0 2 2.8 2.9 5.7 3.8 3.5 1 7.2 2.4 7.2 6.4l-0.1 0.2zm-1.7-72.5v-0.2c-0.2-18.7 14.8-34 33.5-34.3h1.1c12.4 0 20.1 4.2 26.3 11.1l-11.5 12.3c-4.2-4.4-8.4-7.3-15-7.3-9.4 0-16.1 8.3-16.1 18v0.2c0 10.1 6.5 18.1 16.7 18.1 6.3 0 10.6-2.7 15.1-7l11 11.1c-6.6 7.9-16.6 12.3-26.9 11.9-18.6 0.3-33.9-14.5-34.2-33.1v-1 0.2zm28.2 79.2c-4.6 0-9-1.7-12.3-4.9l2.1-2.5c2.7 2.7 6.4 4.2 10.3 4.2 4 0 6.7-2 6.7-5.2s-1.5-4.5-7.8-5.8c-6.9-1.5-10.1-3.7-10.1-8.8s4.2-8.3 9.9-8.3c3.9-0.1 7.6 1.2 10.6 3.7l-2 2.6c-2.4-2.1-5.5-3.3-8.7-3.3-4 0-6.4 2.2-6.4 4.9 0 2.8 1.6 4.5 8.2 5.9s9.8 3.9 9.8 8.6c0.1 5.2-4.3 8.6-10.2 8.6l-0.1 0.3zm24.8-19.8h-7.1v12.9c-0.2 1.8 1 3.5 2.8 3.7h0.9c1.1 0 2.2-0.3 3.2-0.8v2.8c-1.2 0.6-2.6 1-4 0.9-3.1 0.4-5.9-1.9-6.3-5-0.1-0.4-0.1-0.9 0-1.3v-13.5h-3.1v-2.9h3.1v-6.7h3.3v6.7h7.1l0.1 3.2zm12.1 19.9c-6.3 0.1-11.5-5-11.5-11.3v-0.3c0-6.4 5.2-11.6 11.6-11.7 6.4 0 11.6 5.2 11.7 11.6 0 6.4-5.2 11.6-11.6 11.7h-0.2zm27.6-19.8h-0.3c-4.9 0-8.8 3.5-8.8 10.2v8.9h-3.3v-22.3h3.3v5.9c1.4-3.8 5-6.3 9.1-6.3v3.6zm14.1 19.8c-1.9 4.6-4 6.3-7.4 6.3-1.7 0-3.3-0.4-4.8-1.1l1.1-2.6c1.1 0.6 2.3 0.9 3.5 0.8 2 0 3.2-1 4.6-4.2l-10.1-22.2h3.7l8.1 18.6 7.2-18.6h3.5l-9.4 23zm38.4-0.2c-8.6 0-15.6-7-15.5-15.7 0-8.6 7-15.6 15.7-15.5 4.4-0.1 8.7 1.6 11.8 4.8l-2.3 2.5c-2.5-2.6-5.9-4-9.5-4-6.9 0.4-12.1 6.3-11.7 13.2 0.4 6.3 5.4 11.4 11.7 11.7 3.8 0 7.3-1.6 9.8-4.5l2.2 2.2c-3.1 3.4-7.5 5.4-12.2 5.3zm34.5-10.4h-17.7c0.1 4.3 3.6 7.7 7.9 7.6 2.7 0 5.3-1.1 7-3.1l2 1.9c-2.3 2.7-5.6 4.3-9.2 4.2-6.1 0-11.1-4.9-11.1-11v-0.6c0-6.5 4.5-11.6 10.7-11.6 6.6 0 10.4 5.3 10.4 11.8 0.1 0.1 0.1 0.5 0 0.8zm22.9 9.9h-3.3v-13c0-4.1-2.2-6.7-6.2-6.7-3.6-0.1-6.6 2.8-6.7 6.4v0.6 12.8h-3.3v-22.3h3.3v3.9c1.5-2.8 4.5-4.4 7.6-4.4 5.4 0 8.5 3.6 8.5 8.9v13.8zm15.5-19.4h-7.1v13c-0.2 1.8 1 3.5 2.8 3.7h0.9c1.1 0 2.2-0.3 3.2-0.8v2.8c-1.2 0.6-2.6 1-4 0.9-3.1 0.4-5.9-1.9-6.3-5-0.1-0.4-0.1-0.9 0-1.3v-13.5h-3.1v-2.9h3.1v-6.7h3.3v6.7h7.1l0.1 3.1zm14.9 0.3h-0.3c-4.9 0-8.8 3.5-8.8 10.2v8.9h-3.3v-22.3h3.3v5.9c1.4-3.8 5-6.3 9.1-6.2v3.5zm21.4 9.2h-17.6c0.1 4.3 3.6 7.7 7.9 7.6 2.7 0 5.3-1.1 7-3.1l2 1.9c-2.3 2.7-5.6 4.3-9.2 4.2-6.1 0-11.1-4.9-11.1-11v-0.6c0-6.5 4.5-11.6 10.7-11.6 6.6 0 10.4 5.3 10.4 11.8 0 0.1 0 0.5-0.1 0.8zm21.8-102.2h18.7v13.3c3.8-9.1 10-15 21.1-14.5v19.6h-1c-12.4 0-20.1 7.5-20.1 23.3v24.4h-18.7v-66.1zm-41.5-1.2c22.1 0 32.1 17.1 32.1 35.8v0.2c0 1.9-0.1 3-0.2 4.7h-45.8c1.8 8.5 7.8 12.9 16.1 12.9 6.3 0 10.8-2 16-6.8l10.7 9.5c-6.5 8.1-16.5 12.7-27 12.3-19.8 0-34.5-13.9-34.5-34.1v-0.2c0.1-18.8 13.5-34.3 32.6-34.3zm-81.1 1.2l14.8 44.2 15-44.2h19.5l-26 66.5h-17l-26-66.5h19.7zm-54.8-1.2c20.4 0 35.6 15.1 35.6 34.1v0.2c0.1 19-15.2 34.4-35.7 34.4s-35.6-15.1-35.6-34.1v-0.2c0-19.1 15.2-34.4 35.7-34.4z" fill="#fff" stroke="#fff" stroke-miterlimit="10"/>
	<polygon points="612 471.4 612 471.4 604.3 383 604.3 294.2 604.2 294.2 604.2 383" fill="#fff"/>
	<polygon points="596.5 294.3 596.5 294.3 594.3 269.3 594.3 268.6 594.3 268.6 594.3 269.2" fill="#fff" stroke="#fff" stroke-miterlimit="10"/>
	<polygon points="611.3 471.5 604.3 472 604.3 472 611.3 471.5 612 471.5 612 471.4" fill="#fff"/>
	<polygon points="604.2 294.2 604.2 294.1 596.5 294.3 596.5 294.3"/>
	<polygon points="308.4 491.8 308.4 491.8 18.2 523.4 18.1 522.7 15.9 497.6 8.2 497.8 8.2 409 0.4 320.6 1.1 320.5 8.2 320 8.2 294.2 8.8 294.2 300.1 300.4 300.1 300.4 594.3 268.6 594.2 268.5 299.9 300.3 299.8 300.3 8.4 294.1 7.8 294.1 7.8 320 0.7 320.5 0 320.5 7.8 409 7.8 497.9 15.5 497.7 17.7 522.8 17.8 523.5 308.2 491.9 308.2 491.9 603.6 497.9 604.2 497.9 604.2 497.8 603.6 497.8" fill="#fff" stroke="#fff" stroke-miterlimit="10"/>
	<path d="m611.3 471.5h0.7l-7.7-88.5v-88.8l-7.7 0.1-2.3-25.2v-0.7l-294.1 31.8-291.4-6h-0.6v25.8l-7.1 0.5h-0.7l7.8 88.5v88.8l7.8-0.2 2.2 25.1v0.7l290.3-31.6 295.2 6h0.8v-25.8l6.8-0.5zm-8.4 25l-303.1-6-290.8 6v-201l290.8 6 303.1-6v201z" fill="#634657" stroke="#fff" stroke-miterlimit="10"/>
	<path d="m133.5 372.7c0-24.2-18.7-42.8-45.8-42.8h-33.7v86.2h33.6c27.1 0 45.8-18.8 45.8-43.1v-0.3zm-19.9 0.6c0 15.3-10.5 25.7-26 25.7h-14.6v-51.9h14.7c15.5 0 26 10.7 26 26v0.2z" fill="#634657"/>
	<rect x="144.8" y="350.1" width="18.7" height="66" fill="#634657"/>
	<path d="m152.5 445.8v-5.9h-3.3v22.3h3.3v-8.9c0-6.7 4-10.2 8.8-10.2h0.2v-3.6c-4 0-7.6 2.5-9 6.3z" fill="#634657"/>
	<path d="m141 444.2c-1.8-2.9-5.1-4.7-8.5-4.7-6.4 0.5-11.2 6.2-10.7 12.6 0.5 5.7 5 10.2 10.7 10.7 3.5-0.1 6.8-1.9 8.5-5v4.5h3.3v-31.5h-3.3v13.4zm-7.8 15.5c-4.4-0.1-8-3.8-7.9-8.2v-0.4c0-5.4 3.5-8.6 7.9-8.6 4.8 0.3 8.4 4.5 8.1 9.2-0.4 4.3-3.8 7.7-8.1 8z" fill="#634657"/>
	<rect x="144.3" y="326.2" width="19.7" height="16.6" fill="#634657"/>
	<path d="m67.9 459.5c-6.9-0.4-12.1-6.3-11.7-13.2 0.4-6.3 5.4-11.4 11.7-11.7 3.6 0 7 1.4 9.5 4l2.3-2.5c-3.1-3.2-7.3-4.9-11.8-4.8-8.6 0-15.6 6.9-15.7 15.5s6.9 15.6 15.5 15.7c4.6 0.1 9-1.8 12.1-5.3l-2.3-2.2c-2.3 2.9-5.9 4.5-9.6 4.5z" fill="#634657"/>
	<rect x="114.9" y="430.7" width="3.3" height="31.5" fill="#634657"/>
	<path d="m200 402.9c-6.1 0-13.7-2.7-20.8-7.9l-8.1 12.3c8.1 6.4 18 10 28.3 10.1 14.3 0 25.2-6.6 25.2-21.3v-0.2c0-12.1-10.7-16.5-19.9-19.6-7.1-2.6-13.4-4.3-13.4-8v-0.3c0-2.6 2.3-4.6 6.9-4.6s11.3 2.3 17.8 6.2l7.2-12.9c-7.3-4.9-15.9-7.5-24.7-7.6-13.3 0-24.2 7.5-24.2 20.9v0.2c0 12.8 10.5 17.1 19.7 19.8 7.3 2.2 13.7 3.6 13.7 7.6v0.2c0.1 3.1-2.2 5.1-7.7 5.1z" fill="#634657"/>
	<path d="m93.5 439.4c-3.2-0.1-6.1 1.6-7.6 4.4v-13.1h-3.3v31.5h3.3v-12.8c-0.2-3.6 2.5-6.7 6.1-7h0.6c4 0 6.2 2.6 6.2 6.7v13h3.3v-13.8c-0.1-5.3-3.3-8.9-8.6-8.9z" fill="#634657"/>
	<rect x="106.6" y="439.9" width="3.3" height="22.3" fill="#634657"/>
	<rect x="106.4" y="431.4" width="3.8" height="3.7" fill="#634657"/>
	<path d="m290.8 405.5l-11-11.1c-4.6 4.3-8.9 7-15.1 7-10.2 0-16.7-8.1-16.7-18.1v-0.2c0-9.7 6.6-18 16.1-18 6.6 0 10.8 2.8 15 7.3l11.5-12.3c-6.2-6.9-13.9-11.1-26.3-11.1-18.7-0.4-34.2 14.4-34.6 33.1v1.1 0.2c-0.3 18.6 14.6 33.9 33.2 34.1h1c10.4 0.5 20.3-4 26.9-12z" fill="#634657"/>
	<path d="m473.7 439.4c-6.2 0-10.7 5.2-10.7 11.6-0.3 6.1 4.4 11.3 10.5 11.6h0.6c3.5 0.1 6.9-1.4 9.2-4.2l-2-1.9c-1.8 2.1-4.4 3.2-7.1 3.2-4.2 0-7.7-3.3-7.8-7.5h17.6v-1c0.1-6.5-3.7-11.8-10.3-11.8zm-7.3 10.4c0.4-4.4 3.3-7.6 7.2-7.6 4.4 0 6.8 3.5 7.1 7.6h-14.3z" fill="#634657"/>
	<path d="m172.6 439.4c-6.2 0-10.7 5.2-10.7 11.6-0.3 6.1 4.4 11.3 10.5 11.6h0.6c3.5 0.1 6.9-1.4 9.2-4.2l-2-1.9c-1.8 2.1-4.4 3.2-7.1 3.2-4.3 0.1-7.8-3.3-7.9-7.6h17.7v-1c0.1-6.4-3.6-11.7-10.3-11.7zm-7.4 10.4c0.4-4.4 3.4-7.6 7.2-7.6 4.5 0 6.9 3.6 7.2 7.6h-14.4z" fill="#634657"/>
	<path d="m440.7 433.2h-3.3v6.7h-3.1v2.9h3.1v13.5c-0.4 3.1 1.9 5.9 5 6.3h1.3c1.4 0 2.8-0.3 4-0.9v-2.8c-1 0.5-2.1 0.8-3.2 0.8-1.8 0.3-3.5-1-3.8-2.8v-0.9-13h7.1v-2.9h-7.1v-6.9z" fill="#634657"/>
	<path d="m423.7 439.4c-3.2-0.1-6.1 1.6-7.6 4.4v-3.9h-3.3v22.3h3.3v-12.8c-0.2-3.6 2.5-6.7 6.1-7h0.6c3.9 0 6.2 2.6 6.2 6.7v13h3.3v-13.8c0-5.3-3.2-8.9-8.6-8.9z" fill="#634657"/>
	<path d="m524.6 391.7c0-15.8 7.6-23.3 20.1-23.3h1v-19.6c-11.1-0.5-17.2 5.4-21.1 14.5v-13.3h-18.6v66h18.7l-0.1-24.3z" fill="#634657"/>
	<path d="m292.7 383.4c0 19 15.1 34.1 35.7 34.1 20.5 0 35.8-15.4 35.8-34.3v-0.2c0-19-15.1-34.1-35.6-34.1s-35.8 15.4-35.8 34.2l-0.1 0.3zm18.4-0.4c0-9.7 6.4-18 17.1-18 10.3 0 17.4 8.5 17.4 18.1v0.2c0 9.7-6.4 18-17.1 18-10.3 0-17.3-8.5-17.3-18.1v-0.2z" fill="#634657"/>
	<path d="m399 439.4c-6.2 0-10.7 5.2-10.7 11.6-0.3 6.1 4.4 11.3 10.5 11.6h0.6c3.5 0.1 6.9-1.4 9.2-4.2l-2-1.9c-1.8 2.1-4.4 3.2-7.1 3.2-4.2 0-7.7-3.3-7.8-7.5h17.7v-1c0-6.5-3.8-11.8-10.4-11.8zm-7.3 10.4c0.4-4.4 3.4-7.6 7.2-7.6 4.4 0 6.8 3.5 7.1 7.6h-14.3z" fill="#634657"/>
	<polygon points="406.4 416.6 432.4 350.1 413 350.1 398.1 394.3 383.3 350.1 363.5 350.1 389.4 416.6" fill="#634657"/>
	<path d="m431.8 383.4c0 20.1 14.6 34.1 34.5 34.1 10.4 0.4 20.4-4.2 27-12.3l-10.7-9.5c-5.2 4.8-9.7 6.8-16 6.8-8.4 0-14.3-4.4-16.1-12.9h45.9c0.1-1.7 0.2-2.8 0.2-4.7v-0.2c0-18.7-10.1-35.8-32.1-35.8-19.2 0-32.6 15.5-32.6 34.2l-0.1 0.3zm32.6-19.5c7.9 0 12.8 5.7 13.9 14.1h-28.2c1.5-8.6 6.6-14.1 14.3-14.1z" fill="#634657"/>
	<path d="m453.6 445.8v-5.9h-3.3v22.3h3.3v-8.9c0-6.7 4-10.2 8.8-10.2h0.3v-3.6c-4-0.1-7.7 2.5-9.1 6.3z" fill="#634657"/>
	<path d="m258.3 445.5c-6.6-1.4-8.2-3-8.2-5.9s2.5-4.9 6.4-4.9c3.2 0 6.3 1.2 8.7 3.3l2-2.6c-3-2.5-6.8-3.8-10.6-3.6-5.7 0-9.9 3.4-9.9 8.3s3.2 7.3 10.1 8.8c6.3 1.3 7.8 2.9 7.8 5.8s-2.7 5.1-6.7 5.1c-3.9 0-7.6-1.5-10.4-4.3l-2 2.6c3.4 3.1 7.8 4.8 12.4 4.7 6 0 10.3-3.4 10.3-8.6-0.1-4.8-3.2-7.3-9.9-8.7z" fill="#634657"/>
	<path d="m224.1 449.5c-3-0.9-5.7-1.7-5.7-3.8 0-1.9 1.7-3.2 4.3-3.2 2.4 0.1 4.6 0.8 6.6 2.2l1.5-2.5c-2.4-1.6-5.2-2.4-8.1-2.5-4.4 0-7.6 2.6-7.6 6.4 0 4 3.9 5.3 7.4 6.3 2.9 0.8 5.6 1.7 5.6 3.9s-2 3.5-4.6 3.5c-2.8-0.1-5.5-1.1-7.7-2.8l-1.7 2.4c2.6 2.1 5.9 3.2 9.2 3.3 4.4 0 7.9-2.5 7.9-6.7s-3.6-5.5-7.1-6.5z" fill="#634657"/>
	<path d="m209.9 436.5h1.7c0.2 1.9-0.7 3-2.9 3.7l0.5 1.5c2.9-0.3 5.1-2.8 4.8-5.8v-0.1-3.8h-4l-0.1 4.5z" fill="#634657"/>
	<path d="m197.3 439.4c-3.2-0.1-6.1 1.6-7.6 4.4v-3.9h-3.3v22.3h3.3v-12.8c-0.2-3.6 2.5-6.7 6.1-7h0.6c4 0 6.2 2.6 6.2 6.7v13h3.3v-13.8c-0.1-5.3-3.2-8.9-8.6-8.9z" fill="#634657"/>
	<path d="m313.1 445.8v-5.9h-3.3v22.3h3.3v-8.9c0-6.7 4-10.2 8.8-10.2h0.4v-3.6c-4.1-0.1-7.8 2.4-9.2 6.3z" fill="#634657"/>
	<path d="m335.2 458.5l-8.1-18.6h-3.7l10.1 22.2c-1.3 3.2-2.6 4.2-4.6 4.2-1.2 0-2.4-0.2-3.5-0.8l-1.1 2.7c1.5 0.7 3.1 1.1 4.8 1.1 3.4 0 5.5-1.7 7.4-6.3l9.3-23h-3.5l-7.1 18.5z" fill="#634657"/>
	<path d="m275.6 433.2h-3.3v6.7h-3.1v2.9h3.1v13.5c-0.4 3.1 1.9 5.9 5 6.3h1.3c1.4 0 2.8-0.3 4-0.9v-2.8c-1 0.5-2.1 0.8-3.2 0.8-1.8 0.3-3.5-1-3.8-2.8 0-0.3-0.1-0.6 0-0.9v-13h7.1v-2.9h-7.1v-6.9z" fill="#634657"/>
	<path d="m375 459.5c-6.9-0.4-12.1-6.3-11.7-13.2 0.4-6.3 5.4-11.4 11.7-11.7 3.6 0 7 1.4 9.5 4l2.3-2.4c-3.1-3.2-7.3-4.9-11.8-4.8-8.6 0-15.6 6.9-15.7 15.5 0 8.6 6.9 15.6 15.5 15.7 4.6 0.1 9-1.8 12.1-5.3l-2.2-2.2c-2.4 2.9-6 4.4-9.7 4.4z" fill="#634657"/>
	<path d="m294.8 439.4c-6.4-0.1-11.6 5.1-11.6 11.4v0.2c-0.1 6.3 4.9 11.5 11.2 11.6h0.3c6.4-0.2 11.4-5.6 11.2-12.1-0.2-5.9-5-10.8-11.1-11.1zm0 20.3c-4.6-0.1-8.3-3.9-8.2-8.5v-0.2c-0.3-4.5 3.2-8.4 7.7-8.6h0.4c4.6 0.1 8.3 3.9 8.3 8.5v0.2c0.2 4.5-3.3 8.4-7.8 8.6h-0.4z" fill="#634657"/>
</svg>
